<?xml version="1.0" encoding="UTF-8" standalone="no"?>
<!DOCTYPE svg PUBLIC "-//W3C//DTD SVG 1.1//EN" "http://www.w3.org/Graphics/SVG/1.1/DTD/svg11.dtd">
<svg width="100%" height="100%" viewBox="0 0 550 500" version="1.1" xmlns="http://www.w3.org/2000/svg" xmlns:xlink="http://www.w3.org/1999/xlink" xml:space="preserve" xmlns:serif="http://www.serif.com/" style="fill-rule:evenodd;clip-rule:evenodd;stroke-linejoin:round;stroke-miterlimit:2;">
    <g transform="matrix(0.959889,0,0,1.04715,34.2917,-17.225)">
        <g transform="matrix(1.08306,0,0,1.08306,101.295,24.5183)">
            <g transform="matrix(387.64,0,0,387.64,-33.5225,344)">
                <path d="M0.044,-0C0.041,-0 0.04,-0.002 0.04,-0.005L0.042,-0.691C0.042,-0.694 0.043,-0.696 0.046,-0.696L0.158,-0.696C0.161,-0.696 0.162,-0.694 0.162,-0.691L0.162,-0.454L0.319,-0.692C0.321,-0.695 0.323,-0.696 0.326,-0.696L0.441,-0.696C0.444,-0.696 0.444,-0.695 0.443,-0.692L0.27,-0.416L0.464,-0.004C0.465,-0.001 0.464,-0 0.459,-0L0.337,-0C0.334,-0 0.332,-0.001 0.331,-0.004L0.196,-0.298L0.161,-0.243L0.161,-0.005C0.161,-0.002 0.16,-0 0.157,-0L0.044,-0Z" style="fill:rgb(86,81,229);fill-rule:nonzero;"/>
            </g>
            <g transform="matrix(387.64,0,0,387.64,142.466,344)">
                <path d="M0.14,-0C0.137,-0 0.136,-0.002 0.136,-0.005L0.136,-0.575L0.006,-0.575C0.003,-0.575 0.001,-0.577 0.001,-0.58L0.002,-0.692C0.002,-0.695 0.003,-0.696 0.006,-0.696L0.386,-0.696C0.389,-0.696 0.391,-0.695 0.391,-0.692L0.391,-0.58C0.391,-0.577 0.39,-0.575 0.387,-0.575L0.256,-0.575L0.257,-0.005C0.257,-0.002 0.256,-0 0.253,-0L0.14,-0Z" style="fill:rgb(86,81,229);fill-rule:nonzero;"/>
            </g>
        </g>
        <g transform="matrix(1.03656,0,0,1.10806,-10.7117,-49.9191)">
            <g transform="matrix(501.437,0,0,501.437,-46.6562,411)">
                <path d="M0.271,0.159C0.171,0.158 0.121,0.107 0.121,0.008L0.121,-0.139C0.121,-0.204 0.096,-0.239 0.045,-0.242L0.045,-0.299C0.096,-0.302 0.121,-0.337 0.121,-0.404L0.121,-0.547C0.121,-0.648 0.171,-0.699 0.271,-0.7L0.271,-0.638C0.219,-0.636 0.193,-0.604 0.193,-0.541L0.193,-0.398C0.193,-0.33 0.169,-0.288 0.12,-0.272L0.12,-0.27C0.169,-0.255 0.193,-0.214 0.193,-0.145L0.193,-0.004C0.193,0.032 0.199,0.058 0.211,0.073C0.222,0.089 0.242,0.097 0.271,0.098L0.271,0.159Z" style="fill:rgb(86,81,229);fill-rule:nonzero;"/>
            </g>
        </g>
        <g transform="matrix(1.0388,0,0,1.10806,451.432,-49.9191)">
            <g transform="matrix(501.437,0,0,501.437,-46.6562,411)">
                <path d="M0.258,-0.242C0.207,-0.239 0.182,-0.204 0.182,-0.139L0.182,0.008C0.182,0.107 0.132,0.158 0.032,0.159L0.032,0.098C0.061,0.097 0.081,0.089 0.093,0.073C0.104,0.058 0.11,0.032 0.11,-0.004L0.11,-0.145C0.11,-0.214 0.135,-0.255 0.183,-0.27L0.183,-0.272C0.135,-0.288 0.11,-0.33 0.11,-0.398L0.11,-0.541C0.11,-0.604 0.084,-0.636 0.032,-0.638L0.032,-0.7C0.132,-0.699 0.182,-0.648 0.182,-0.547L0.182,-0.404C0.182,-0.337 0.207,-0.302 0.258,-0.299L0.258,-0.242Z" style="fill:rgb(86,81,229);fill-rule:nonzero;"/>
            </g>
        </g>
    </g>
</svg>
