<?xml version="1.0" encoding="UTF-8" standalone="no"?>
<!DOCTYPE svg PUBLIC "-//W3C//DTD SVG 1.1//EN" "http://www.w3.org/Graphics/SVG/1.1/DTD/svg11.dtd">
<svg width="100%" height="100%" viewBox="0 0 512 512" version="1.1" xmlns="http://www.w3.org/2000/svg" xmlns:xlink="http://www.w3.org/1999/xlink" xml:space="preserve" xmlns:serif="http://www.serif.com/" style="fill-rule:evenodd;clip-rule:evenodd;stroke-linejoin:round;stroke-miterlimit:2;">
    <g transform="matrix(0.893569,0,0,0.893569,31.9225,31.7249)">
        <g transform="matrix(1.08306,0,0,1.08306,101.295,24.5183)">
            <g transform="matrix(387.64,0,0,387.64,-33.5225,344)">
                <path d="M0.044,-0C0.041,-0 0.04,-0.002 0.04,-0.005L0.042,-0.691C0.042,-0.694 0.043,-0.696 0.046,-0.696L0.158,-0.696C0.161,-0.696 0.162,-0.694 0.162,-0.691L0.162,-0.454L0.319,-0.692C0.321,-0.695 0.323,-0.696 0.326,-0.696L0.441,-0.696C0.444,-0.696 0.444,-0.695 0.443,-0.692L0.27,-0.416L0.464,-0.004C0.465,-0.001 0.464,-0 0.459,-0L0.337,-0C0.334,-0 0.332,-0.001 0.331,-0.004L0.196,-0.298L0.161,-0.243L0.161,-0.005C0.161,-0.002 0.16,-0 0.157,-0L0.044,-0Z" style="fill:rgb(86,81,229);fill-rule:nonzero;"/>
            </g>
            <g transform="matrix(387.64,0,0,387.64,142.466,344)">
                <path d="M0.14,-0C0.137,-0 0.136,-0.002 0.136,-0.005L0.136,-0.575L0.006,-0.575C0.003,-0.575 0.001,-0.577 0.001,-0.58L0.002,-0.692C0.002,-0.695 0.003,-0.696 0.006,-0.696L0.386,-0.696C0.389,-0.696 0.391,-0.695 0.391,-0.692L0.391,-0.58C0.391,-0.577 0.39,-0.575 0.387,-0.575L0.256,-0.575L0.257,-0.005C0.257,-0.002 0.256,-0 0.253,-0L0.14,-0Z" style="fill:rgb(86,81,229);fill-rule:nonzero;"/>
            </g>
        </g>
        <g transform="matrix(0.613453,0,0,1.11911,1.85462,-52.9623)">
            <g transform="matrix(501.437,0,0,501.437,-121.431,411)">
                <path d="M0.441,0.152C0.41,0.152 0.382,0.15 0.359,0.145C0.336,0.141 0.316,0.134 0.301,0.124C0.286,0.114 0.274,0.1 0.267,0.083C0.26,0.066 0.256,0.045 0.256,0.019C0.256,0.001 0.257,-0.016 0.258,-0.033C0.259,-0.049 0.26,-0.065 0.261,-0.08C0.262,-0.095 0.263,-0.111 0.264,-0.126C0.265,-0.141 0.265,-0.157 0.265,-0.174C0.265,-0.184 0.263,-0.194 0.259,-0.203C0.255,-0.212 0.248,-0.22 0.237,-0.227C0.226,-0.234 0.212,-0.24 0.193,-0.245C0.173,-0.25 0.149,-0.252 0.12,-0.252L0.12,-0.304C0.149,-0.304 0.173,-0.306 0.193,-0.311C0.212,-0.316 0.226,-0.322 0.237,-0.329C0.248,-0.336 0.255,-0.344 0.259,-0.354C0.263,-0.363 0.265,-0.372 0.265,-0.382C0.265,-0.414 0.264,-0.446 0.261,-0.476C0.258,-0.507 0.256,-0.54 0.256,-0.575C0.256,-0.601 0.26,-0.623 0.267,-0.64C0.274,-0.657 0.286,-0.67 0.301,-0.68C0.316,-0.69 0.336,-0.697 0.359,-0.702C0.382,-0.706 0.41,-0.708 0.441,-0.708L0.502,-0.708L0.502,-0.661L0.45,-0.661C0.425,-0.661 0.404,-0.659 0.388,-0.656C0.371,-0.653 0.359,-0.647 0.349,-0.64C0.341,-0.633 0.334,-0.623 0.331,-0.612C0.328,-0.6 0.326,-0.586 0.326,-0.57C0.326,-0.541 0.327,-0.512 0.329,-0.482C0.331,-0.451 0.332,-0.42 0.332,-0.389C0.332,-0.356 0.326,-0.332 0.313,-0.315C0.3,-0.298 0.276,-0.286 0.241,-0.28L0.241,-0.276C0.276,-0.27 0.3,-0.259 0.313,-0.242C0.326,-0.225 0.332,-0.2 0.332,-0.167C0.332,-0.133 0.331,-0.102 0.329,-0.074C0.327,-0.046 0.326,-0.017 0.326,0.014C0.326,0.03 0.328,0.044 0.331,0.055C0.334,0.067 0.341,0.077 0.349,0.084C0.359,0.091 0.371,0.097 0.388,0.1C0.404,0.103 0.425,0.105 0.45,0.105L0.502,0.105L0.502,0.152L0.441,0.152Z" style="fill:rgb(86,81,229);fill-rule:nonzero;"/>
            </g>
        </g>
        <g transform="matrix(0.613453,0,0,1.11911,464.099,-52.9623)">
            <g transform="matrix(501.437,0,0,501.437,-121.431,411)">
                <path d="M0.099,0.152L0.099,0.105L0.15,0.105C0.175,0.105 0.196,0.103 0.213,0.1C0.229,0.097 0.242,0.091 0.251,0.084C0.26,0.077 0.267,0.067 0.27,0.055C0.273,0.044 0.275,0.03 0.275,0.014C0.275,-0.017 0.274,-0.046 0.272,-0.074C0.27,-0.102 0.269,-0.133 0.269,-0.167C0.269,-0.2 0.275,-0.225 0.288,-0.242C0.301,-0.259 0.324,-0.27 0.359,-0.276L0.359,-0.28C0.324,-0.286 0.301,-0.298 0.288,-0.315C0.275,-0.332 0.269,-0.356 0.269,-0.389C0.269,-0.42 0.27,-0.451 0.272,-0.482C0.274,-0.512 0.275,-0.541 0.275,-0.57C0.275,-0.586 0.273,-0.6 0.27,-0.612C0.267,-0.623 0.26,-0.633 0.251,-0.64C0.242,-0.647 0.229,-0.653 0.213,-0.656C0.196,-0.659 0.175,-0.661 0.15,-0.661L0.099,-0.661L0.099,-0.708L0.16,-0.708C0.191,-0.708 0.219,-0.706 0.242,-0.702C0.265,-0.697 0.284,-0.69 0.299,-0.68C0.314,-0.67 0.326,-0.657 0.333,-0.64C0.34,-0.623 0.344,-0.601 0.344,-0.575C0.344,-0.54 0.343,-0.507 0.34,-0.476C0.337,-0.446 0.335,-0.414 0.335,-0.382C0.335,-0.372 0.337,-0.363 0.341,-0.354C0.345,-0.344 0.352,-0.336 0.363,-0.329C0.374,-0.322 0.389,-0.316 0.407,-0.311C0.427,-0.306 0.451,-0.304 0.48,-0.304L0.48,-0.252C0.451,-0.252 0.427,-0.25 0.407,-0.245C0.389,-0.24 0.374,-0.234 0.363,-0.227C0.352,-0.22 0.345,-0.212 0.341,-0.203C0.337,-0.194 0.335,-0.184 0.335,-0.174C0.335,-0.157 0.336,-0.141 0.337,-0.126C0.338,-0.111 0.339,-0.095 0.34,-0.08C0.341,-0.065 0.342,-0.049 0.343,-0.033C0.344,-0.016 0.344,0.001 0.344,0.019C0.344,0.045 0.34,0.066 0.333,0.083C0.326,0.1 0.314,0.114 0.299,0.124C0.284,0.134 0.265,0.141 0.242,0.145C0.219,0.15 0.191,0.152 0.16,0.152L0.099,0.152Z" style="fill:rgb(86,81,229);fill-rule:nonzero;"/>
            </g>
        </g>
    </g>
</svg>
